<?xml version="1.0" standalone="no"?>
<!DOCTYPE svg PUBLIC "-//W3C//DTD SVG 20010904//EN"
 "http://www.w3.org/TR/2001/REC-SVG-20010904/DTD/svg10.dtd">
<svg version="1.0" xmlns="http://www.w3.org/2000/svg"
 width="512.000000pt" height="512.000000pt" viewBox="0 0 512.000000 512.000000"
 preserveAspectRatio="xMidYMid meet">
<metadata>
Created by potrace 1.16, written by Peter Selinger 2001-2019
</metadata>
<g transform="translate(0.000000,512.000000) scale(0.100000,-0.100000)"
fill="#000000" stroke="none">
<path d="M2107 4768 c-13 -10 -574 -1166 -643 -1325 l-14 -33 178 0 178 0 229
481 c126 264 232 482 235 484 5 3 2488 -1179 2497 -1189 3 -3 -691 -1465 -758
-1598 l-19 -37 -177 85 c-98 48 -197 94 -220 105 l-43 18 0 -440 0 -440 138
-67 c153 -73 195 -81 221 -42 9 13 285 587 613 1274 410 858 598 1261 598
1284 0 19 -7 39 -18 48 -33 28 -2925 1404 -2952 1404 -14 0 -34 -6 -43 -12z"/>
<path d="M17 3242 c-16 -17 -17 -132 -17 -1444 0 -1368 1 -1426 18 -1441 17
-16 147 -17 1659 -17 l1640 0 19 21 c18 21 19 59 19 1439 0 1380 -1 1418 -19
1439 l-19 21 -1642 0 c-1578 0 -1643 -1 -1658 -18z m3073 -1202 l0 -911 -96 3
-96 3 -67 165 c-148 365 -243 495 -369 508 -161 15 -327 -219 -433 -608 l-12
-45 -18 75 c-86 344 -270 725 -443 917 -63 69 -106 93 -165 93 -184 0 -385
-359 -581 -1037 l-21 -73 -234 0 -235 0 0 910 0 910 1385 0 1385 0 0 -910z"/>
<path d="M665 2771 c-84 -38 -135 -117 -135 -211 0 -131 99 -230 230 -230 131
0 230 99 230 230 0 131 -99 230 -230 230 -32 0 -72 -8 -95 -19z"/>
<path d="M2254 2731 c-17 -10 -36 -32 -43 -49 -11 -27 -20 -32 -60 -38 -67 -9
-165 -58 -179 -89 -44 -96 154 -176 383 -155 48 5 85 2 119 -7 64 -19 192 -18
258 1 170 49 229 177 126 273 -12 12 -50 34 -83 50 -55 25 -70 28 -170 27 -60
0 -123 -6 -138 -12 -23 -10 -34 -9 -57 3 -41 21 -118 19 -156 -4z"/>
</g>
</svg>
